<mxfile host="app.diagrams.net" modified="2024-01-03T00:40:07.008Z" agent="Mozilla/5.0 (Windows NT 10.0; Win64; x64) AppleWebKit/537.36 (KHTML, like Gecko) Chrome/120.0.0.0 Safari/537.36 Edg/120.0.0.0" etag="P_7ZLQ3UBMm4YVxKfJiy" version="22.1.16" type="device">
  <diagram name="第 1 页" id="jgHeYzDKI5eqHvsDa6jq">
    <mxGraphModel dx="1282" dy="535" grid="1" gridSize="10" guides="1" tooltips="1" connect="1" arrows="1" fold="1" page="1" pageScale="1" pageWidth="827" pageHeight="1169" math="0" shadow="0">
      <root>
        <mxCell id="0" />
        <mxCell id="1" parent="0" />
        <mxCell id="Q-eJgUvHjbEwDiXTpLKB-1" style="edgeStyle=orthogonalEdgeStyle;rounded=0;orthogonalLoop=1;jettySize=auto;html=1;" edge="1" parent="1" source="Q-eJgUvHjbEwDiXTpLKB-2">
          <mxGeometry relative="1" as="geometry">
            <mxPoint x="240" y="200" as="targetPoint" />
          </mxGeometry>
        </mxCell>
        <mxCell id="Q-eJgUvHjbEwDiXTpLKB-2" value="&lt;font style=&quot;font-size: 15px;&quot;&gt;开始&lt;/font&gt;" style="rounded=1;whiteSpace=wrap;html=1;" vertex="1" parent="1">
          <mxGeometry x="180" y="100" width="120" height="60" as="geometry" />
        </mxCell>
        <mxCell id="Q-eJgUvHjbEwDiXTpLKB-3" value="&lt;font style=&quot;font-size: 15px;&quot;&gt;输入操作命令&lt;/font&gt;" style="rounded=0;whiteSpace=wrap;html=1;" vertex="1" parent="1">
          <mxGeometry x="180" y="200" width="120" height="60" as="geometry" />
        </mxCell>
        <mxCell id="Q-eJgUvHjbEwDiXTpLKB-4" value="&lt;font style=&quot;font-size: 15px;&quot;&gt;命令是否正确&lt;/font&gt;" style="strokeWidth=2;html=1;shape=mxgraph.flowchart.decision;whiteSpace=wrap;" vertex="1" parent="1">
          <mxGeometry x="120" y="300" width="240" height="100" as="geometry" />
        </mxCell>
        <mxCell id="Q-eJgUvHjbEwDiXTpLKB-5" value="" style="endArrow=classic;html=1;rounded=0;exitX=0.5;exitY=1;exitDx=0;exitDy=0;entryX=0.5;entryY=0;entryDx=0;entryDy=0;entryPerimeter=0;" edge="1" parent="1" source="Q-eJgUvHjbEwDiXTpLKB-3" target="Q-eJgUvHjbEwDiXTpLKB-4">
          <mxGeometry width="50" height="50" relative="1" as="geometry">
            <mxPoint x="220" y="310" as="sourcePoint" />
            <mxPoint x="270" y="260" as="targetPoint" />
          </mxGeometry>
        </mxCell>
        <mxCell id="Q-eJgUvHjbEwDiXTpLKB-6" value="" style="endArrow=classic;html=1;rounded=0;exitX=1;exitY=0.5;exitDx=0;exitDy=0;exitPerimeter=0;" edge="1" parent="1" source="Q-eJgUvHjbEwDiXTpLKB-4">
          <mxGeometry width="50" height="50" relative="1" as="geometry">
            <mxPoint x="340" y="320" as="sourcePoint" />
            <mxPoint x="240" y="180" as="targetPoint" />
            <Array as="points">
              <mxPoint x="400" y="350" />
              <mxPoint x="400" y="180" />
            </Array>
          </mxGeometry>
        </mxCell>
        <mxCell id="Q-eJgUvHjbEwDiXTpLKB-7" value="否" style="edgeLabel;html=1;align=center;verticalAlign=middle;resizable=0;points=[];" vertex="1" connectable="0" parent="Q-eJgUvHjbEwDiXTpLKB-6">
          <mxGeometry x="-0.3364" relative="1" as="geometry">
            <mxPoint as="offset" />
          </mxGeometry>
        </mxCell>
        <mxCell id="Q-eJgUvHjbEwDiXTpLKB-8" value="" style="endArrow=classic;html=1;rounded=0;exitX=0.5;exitY=1;exitDx=0;exitDy=0;exitPerimeter=0;entryX=0.542;entryY=0.499;entryDx=0;entryDy=0;entryPerimeter=0;" edge="1" parent="1" source="Q-eJgUvHjbEwDiXTpLKB-4" target="Q-eJgUvHjbEwDiXTpLKB-10">
          <mxGeometry width="50" height="50" relative="1" as="geometry">
            <mxPoint x="200" y="460" as="sourcePoint" />
            <mxPoint x="240" y="450" as="targetPoint" />
          </mxGeometry>
        </mxCell>
        <mxCell id="Q-eJgUvHjbEwDiXTpLKB-9" value="是" style="edgeLabel;html=1;align=center;verticalAlign=middle;resizable=0;points=[];" vertex="1" connectable="0" parent="Q-eJgUvHjbEwDiXTpLKB-8">
          <mxGeometry x="-0.2024" y="-1" relative="1" as="geometry">
            <mxPoint as="offset" />
          </mxGeometry>
        </mxCell>
        <mxCell id="Q-eJgUvHjbEwDiXTpLKB-10" value="" style="strokeWidth=2;html=1;shape=mxgraph.flowchart.annotation_2;align=left;labelPosition=right;pointerEvents=1;rotation=90;" vertex="1" parent="1">
          <mxGeometry x="215" y="355" width="50" height="240" as="geometry" />
        </mxCell>
        <mxCell id="Q-eJgUvHjbEwDiXTpLKB-11" value="&lt;span style=&quot;font-size: 15px;&quot;&gt;构&lt;br&gt;建&lt;br&gt;表&lt;br&gt;达&lt;br&gt;式&lt;br&gt;树&lt;/span&gt;" style="rounded=0;whiteSpace=wrap;html=1;" vertex="1" parent="1">
          <mxGeometry x="90" y="499" width="60" height="181" as="geometry" />
        </mxCell>
        <mxCell id="Q-eJgUvHjbEwDiXTpLKB-12" value="" style="strokeWidth=2;html=1;shape=mxgraph.flowchart.annotation_1;align=left;pointerEvents=1;rotation=90;" vertex="1" parent="1">
          <mxGeometry x="282.66" y="427.35" width="31.56" height="126.87" as="geometry" />
        </mxCell>
        <mxCell id="Q-eJgUvHjbEwDiXTpLKB-13" value="&lt;span style=&quot;font-size: 15px;&quot;&gt;计算表达式树的值&lt;/span&gt;" style="rounded=0;whiteSpace=wrap;html=1;" vertex="1" parent="1">
          <mxGeometry x="330" y="500" width="60" height="180" as="geometry" />
        </mxCell>
        <mxCell id="Q-eJgUvHjbEwDiXTpLKB-14" value="&lt;span style=&quot;font-size: 15px;&quot;&gt;遍&lt;br&gt;历&lt;br&gt;输&lt;br&gt;出&lt;br&gt;表&lt;br&gt;达&lt;br&gt;式&lt;br&gt;树&lt;/span&gt;" style="rounded=0;whiteSpace=wrap;html=1;" vertex="1" parent="1">
          <mxGeometry x="215" y="499" width="60" height="181" as="geometry" />
        </mxCell>
        <mxCell id="Q-eJgUvHjbEwDiXTpLKB-15" value="" style="strokeWidth=2;html=1;shape=mxgraph.flowchart.annotation_2;align=left;labelPosition=right;pointerEvents=1;rotation=-90;" vertex="1" parent="1">
          <mxGeometry x="215" y="595" width="50" height="220" as="geometry" />
        </mxCell>
        <mxCell id="Q-eJgUvHjbEwDiXTpLKB-16" value="" style="strokeWidth=2;html=1;shape=mxgraph.flowchart.annotation_1;align=left;pointerEvents=1;rotation=-90;" vertex="1" parent="1">
          <mxGeometry x="173.13" y="635.88" width="25.5" height="112.75" as="geometry" />
        </mxCell>
        <mxCell id="Q-eJgUvHjbEwDiXTpLKB-17" value="&lt;font style=&quot;font-size: 15px;&quot;&gt;执行相关操作&lt;/font&gt;" style="rounded=0;whiteSpace=wrap;html=1;" vertex="1" parent="1">
          <mxGeometry x="173" y="730" width="120" height="60" as="geometry" />
        </mxCell>
        <mxCell id="Q-eJgUvHjbEwDiXTpLKB-18" value="" style="endArrow=classic;html=1;rounded=0;exitX=1;exitY=1;exitDx=0;exitDy=0;exitPerimeter=0;entryX=0;entryY=0.5;entryDx=0;entryDy=0;entryPerimeter=0;" edge="1" parent="1" source="Q-eJgUvHjbEwDiXTpLKB-16" target="Q-eJgUvHjbEwDiXTpLKB-15">
          <mxGeometry width="50" height="50" relative="1" as="geometry">
            <mxPoint x="570" y="640" as="sourcePoint" />
            <mxPoint x="620" y="590" as="targetPoint" />
          </mxGeometry>
        </mxCell>
        <mxCell id="Q-eJgUvHjbEwDiXTpLKB-19" style="edgeStyle=orthogonalEdgeStyle;rounded=0;orthogonalLoop=1;jettySize=auto;html=1;exitX=1;exitY=0.5;exitDx=0;exitDy=0;exitPerimeter=0;" edge="1" parent="1" source="Q-eJgUvHjbEwDiXTpLKB-23">
          <mxGeometry relative="1" as="geometry">
            <mxPoint x="400" y="180" as="targetPoint" />
            <Array as="points">
              <mxPoint x="480" y="880" />
              <mxPoint x="480" y="180" />
            </Array>
          </mxGeometry>
        </mxCell>
        <mxCell id="Q-eJgUvHjbEwDiXTpLKB-20" value="是" style="edgeLabel;html=1;align=center;verticalAlign=middle;resizable=0;points=[];" vertex="1" connectable="0" parent="Q-eJgUvHjbEwDiXTpLKB-19">
          <mxGeometry x="-0.8499" y="4" relative="1" as="geometry">
            <mxPoint as="offset" />
          </mxGeometry>
        </mxCell>
        <mxCell id="Q-eJgUvHjbEwDiXTpLKB-21" style="edgeStyle=orthogonalEdgeStyle;rounded=0;orthogonalLoop=1;jettySize=auto;html=1;exitX=0.5;exitY=1;exitDx=0;exitDy=0;exitPerimeter=0;entryX=0.5;entryY=0;entryDx=0;entryDy=0;" edge="1" parent="1" source="Q-eJgUvHjbEwDiXTpLKB-23" target="Q-eJgUvHjbEwDiXTpLKB-25">
          <mxGeometry relative="1" as="geometry" />
        </mxCell>
        <mxCell id="Q-eJgUvHjbEwDiXTpLKB-22" value="否" style="edgeLabel;html=1;align=center;verticalAlign=middle;resizable=0;points=[];" vertex="1" connectable="0" parent="Q-eJgUvHjbEwDiXTpLKB-21">
          <mxGeometry x="-0.2074" y="-1" relative="1" as="geometry">
            <mxPoint as="offset" />
          </mxGeometry>
        </mxCell>
        <mxCell id="Q-eJgUvHjbEwDiXTpLKB-23" value="&lt;font style=&quot;font-size: 15px;&quot;&gt;是否继续&lt;/font&gt;" style="strokeWidth=2;html=1;shape=mxgraph.flowchart.decision;whiteSpace=wrap;" vertex="1" parent="1">
          <mxGeometry x="140.5" y="830" width="185" height="100" as="geometry" />
        </mxCell>
        <mxCell id="Q-eJgUvHjbEwDiXTpLKB-24" style="edgeStyle=orthogonalEdgeStyle;rounded=0;orthogonalLoop=1;jettySize=auto;html=1;exitX=0.5;exitY=1;exitDx=0;exitDy=0;entryX=0.5;entryY=0;entryDx=0;entryDy=0;entryPerimeter=0;" edge="1" parent="1" source="Q-eJgUvHjbEwDiXTpLKB-17" target="Q-eJgUvHjbEwDiXTpLKB-23">
          <mxGeometry relative="1" as="geometry" />
        </mxCell>
        <mxCell id="Q-eJgUvHjbEwDiXTpLKB-25" value="结束" style="rounded=1;whiteSpace=wrap;html=1;" vertex="1" parent="1">
          <mxGeometry x="173" y="980" width="120" height="60" as="geometry" />
        </mxCell>
      </root>
    </mxGraphModel>
  </diagram>
</mxfile>
